# xmcd CD database file
#
# Track frame offsets:
#	150
#	17662
#	22647
#	41550
#	62740
#	76695
#	89710
#	109225
#	126800
#	142820
#	160585
#	178725
#	195067
#	214375
#	233172
#	247060
#
# Disc length: 3474 seconds
#
# Revision: 0
# Processed by: cddbd v1.5.1PL2 Copyright (c) Steve Scherf et al.
# Submitted via: CDex 1.51
#
DISCID=c80d9010
DTITLE=柴田恭兵 - あぶない刑事 YUJI THE BEST
DYEAR=2005
DGENRE=JPop
TTITLE0=RUNNING SHOT -HysteriCa mix-
TTITLE1=あぶない刑事
TTITLE2=ランニング・ショット (SINGLE MIX VERSION)
TTITLE3=真夜中のステップ
TTITLE4=WAR (SINGLE MIX VERSION)
TTITLE5=ラブロマンス
TTITLE6=FUGITIVE
TTITLE7=GET DOWN
TTITLE8=BAD DREAMS
TTITLE9=TRASH
TTITLE10=Dark Side of Moon
TTITLE11=RUNNING SHOT (SHOTGUN MIX)
TTITLE12=RUNNING SHOT (HOLD ON MIX)
TTITLE13=RUNNING SHOT (ALBUM "SHOUT" MIX)
TTITLE14=WAR (ALBUM "SHOUT" MIX)
TTITLE15=RUNNING SHOT （Instrumental)
EXTD=YEAR: 2005
EXTT0=
EXTT1=
EXTT2=
EXTT3=
EXTT4=
EXTT5=
EXTT6=
EXTT7=
EXTT8=
EXTT9=
EXTT10=
EXTT11=
EXTT12=
EXTT13=
EXTT14=
EXTT15=
PLAYORDER=
